<svg height="472pt" viewBox="-48 0 472 472.17" width="472pt" xmlns="http://www.w3.org/2000/svg"><path d="M116.54 129h.097c35.625-.008 64.492-28.895 64.484-64.516C181.113 28.86 152.227-.008 116.605 0h-.03c-35.622-.012-64.509 28.86-64.52 64.48-.008 35.625 28.86 64.508 64.484 64.52zm24.593 232.652c.058-54.937 35.906-103.425 88.41-119.586-12.324-41.976-50.75-70.87-94.496-71.066H98.262C43.879 171.172-.07 215.387.086 269.773V378h142.082a139.474 139.474 0 0 1-1.035-16.348zm102.515 52.398l-12.71-12.706-15.301 15.3 12.703 12.598zm0 0"/><path d="M155.133 361.457c0 61.145 49.57 110.715 110.715 110.715 61.144 0 110.715-49.57 110.715-110.715 0-61.148-49.57-110.715-110.715-110.715-61.118.07-110.645 49.598-110.715 110.715zm34.601 61.293l78.524-78.523c-12.223-17.36-9.133-41.188 7.113-54.856s40.25-12.633 55.266 2.379c15.011 15.012 16.043 39.016 2.375 55.262-13.668 16.246-37.492 19.336-54.856 7.117l-37.316 37.316 17.676 17.676a7.005 7.005 0 0 1-.016 9.918l-25.223 25.035a7.005 7.005 0 0 1-9.863 0l-17.676-17.531-6.101 6.102a7.002 7.002 0 0 1-9.898-9.902zm0 0"/><path d="M301.64 347.586c14.829 0 26.848-12.02 26.848-26.848-.004-14.824-12.02-26.843-26.847-26.843-14.825 0-26.844 12.02-26.844 26.843.015 14.82 12.027 26.832 26.844 26.848zm0 0"/></svg>