<svg xmlns="http://www.w3.org/2000/svg" viewBox="0 0 21 14">
  <defs>
    <style>
      .cls-1 {
        fill: #595a9e;
      }
    </style>
  </defs>
  <path id="Page_1_Copy" data-name="Page 1 Copy" class="cls-1" d="M20.86,6.55,16.087.186A.426.426,0,0,0,15.75,0c-.264,0-.477.284-.477.636a.754.754,0,0,0,.14.45l3.958,5.277H.477C.213,6.364,0,6.648,0,7s.213.636.477.636H19.371l-3.958,5.277a.755.755,0,0,0-.14.45c0,.352.213.636.477.636a.425.425,0,0,0,.337-.186L20.86,7.45a.794.794,0,0,0,0-.9" transform="translate(21 14) rotate(-180)"/>
</svg>
