<svg id="Group_3" data-name="Group 3" xmlns="http://www.w3.org/2000/svg" xmlns:xlink="http://www.w3.org/1999/xlink" viewBox="0 0 19 19">
  <defs>
    <style>
      .cls-1 {
        fill: none;
      }

      .cls-2 {
        clip-path: url(#clip-path);
      }

      .cls-3 {
        fill: rgba(88,88,128,0.8);
      }
    </style>
    <clipPath id="clip-path">
      <path id="Clip_2" data-name="Clip 2" class="cls-1" d="M0,0H19V19H0Z"/>
    </clipPath>
  </defs>
  <path id="Clip_2-2" data-name="Clip 2" class="cls-1" d="M0,0H19V19H0Z"/>
  <g id="Group_3-2" data-name="Group 3" class="cls-2">
    <path id="Fill_1" data-name="Fill 1" class="cls-3" d="M9.489,19a9.482,9.482,0,0,1-1.094-.063.527.527,0,0,1-.466-.555A2.107,2.107,0,0,0,6.643,16.32a1.971,1.971,0,0,0-.767-.149,2.18,2.18,0,0,0-1.6.682.529.529,0,0,1-.723.058,9.422,9.422,0,0,1-1.5-1.521.529.529,0,0,1,.058-.715,2.112,2.112,0,0,0,.531-2.349,2.093,2.093,0,0,0-1.906-1.3H.682a.631.631,0,0,1-.623-.467,9.515,9.515,0,0,1,0-2.16.512.512,0,0,1,.528-.467H.613A2.2,2.2,0,0,0,2.679,6.644a2.1,2.1,0,0,0-.531-2.37.529.529,0,0,1-.057-.722,9.448,9.448,0,0,1,1.537-1.52.53.53,0,0,1,.716.06,2.185,2.185,0,0,0,1.6.677,1.971,1.971,0,0,0,.75-.142A2.114,2.114,0,0,0,8,.6a.531.531,0,0,1,.47-.544A9.466,9.466,0,0,1,9.511,0a9.6,9.6,0,0,1,1.095.063.527.527,0,0,1,.466.555,2.112,2.112,0,0,0,1.283,2.063,1.982,1.982,0,0,0,.767.148,2.179,2.179,0,0,0,1.6-.681.53.53,0,0,1,.722-.059,9.394,9.394,0,0,1,1.5,1.52.529.529,0,0,1-.058.716,2.1,2.1,0,0,0,1.435,3.651.624.624,0,0,1,.611.468,9.475,9.475,0,0,1,0,2.16.531.531,0,0,1-.518.468l-.039,0-.117,0a2.126,2.126,0,0,0-1.943,1.288,2.1,2.1,0,0,0,.532,2.37.529.529,0,0,1,.057.723,9.444,9.444,0,0,1-1.537,1.519.53.53,0,0,1-.716-.06,2.19,2.19,0,0,0-1.6-.677,1.98,1.98,0,0,0-.753.143A2.112,2.112,0,0,0,11,18.4a.532.532,0,0,1-.47.544A9.482,9.482,0,0,1,9.489,19ZM9.515,6.351A3.169,3.169,0,1,0,12.684,9.52,3.172,3.172,0,0,0,9.515,6.351Z"/>
  </g>
</svg>
