<svg id="Warstwa_1" data-name="Warstwa 1" xmlns="http://www.w3.org/2000/svg" viewBox="0 0 21.66 22.3"><defs><style>.cls-1{fill:#b7b8c4;}</style></defs><title>usermenu_profil</title><path class="cls-1" d="M18.61,6.29a.75.75,0,0,0-1.27.8,7.65,7.65,0,0,1-1.19,9.58,6.11,6.11,0,0,0-2.79-2.55,4,4,0,1,0-5.06,0,6.11,6.11,0,0,0-2.79,2.55A7.67,7.67,0,0,1,14.31,4.31.75.75,0,1,0,15,3a9.07,9.07,0,0,0-4.16-1,9.17,9.17,0,1,0,7.78,4.31ZM10.83,8.62a2.47,2.47,0,1,1-2.47,2.47A2.47,2.47,0,0,1,10.83,8.62Zm-4.14,9,0,0a4.63,4.63,0,0,1,8.23,0l0,0a7.62,7.62,0,0,1-8.28,0Z"/></svg>