<svg xmlns="http://www.w3.org/2000/svg" viewBox="0 0 16 15.979"><defs><style>.cls-1{fill:none}.cls-3{fill:#595a9e}</style><clipPath id="clip-path"><path id="Clip_2" data-name="Clip 2" class="cls-1" d="M0 0h3.981v8.968H0z" transform="translate(0 .032)"/></clipPath><clipPath id="clip-path-2"><path id="Clip_5" data-name="Clip 5" class="cls-1" d="M0 0h3.984v15.975H0z" transform="translate(.008 .021)"/></clipPath><clipPath id="clip-path-3"><path id="Clip_8" data-name="Clip 8" class="cls-1" d="M0 0h3.981v10.62H0z" transform="translate(.019 .036)"/></clipPath></defs><g id="Group_10" data-name="Group 10" transform="translate(0 -.021)"><g id="Group_3" data-name="Group 3" transform="translate(0 7)"><path id="Clip_2-2" data-name="Clip 2" class="cls-1" d="M0 0h3.981v8.968H0z" transform="translate(0 .032)"/><g id="Group_3-2" data-name="Group 3" clip-path="url(#clip-path)"><path id="Fill_1" data-name="Fill 1" class="cls-3" d="M3.671 0H.311A.32.32 0 0 0 0 .332v8.305a.32.32 0 0 0 .311.332h3.36a.32.32 0 0 0 .311-.332V.332A.32.32 0 0 0 3.671 0" transform="translate(0 .032)"/></g></g><g id="Group_6" data-name="Group 6" transform="translate(6)"><path id="Clip_5-2" data-name="Clip 5" class="cls-1" d="M0 0h3.984v15.975H0z" transform="translate(.008 .021)"/><g id="Group_6-2" data-name="Group 6" clip-path="url(#clip-path-2)"><path id="Fill_4" data-name="Fill 4" d="M3.674 0H.311A.317.317 0 0 0 0 .326V15.65a.317.317 0 0 0 .311.326h3.363a.317.317 0 0 0 .311-.326V.326A.319.319 0 0 0 3.674 0" transform="translate(.008 .021)" fill="#339a99"/></g></g><g id="Group_9" data-name="Group 9" transform="translate(12 5)"><path id="Clip_8-2" data-name="Clip 8" class="cls-1" d="M0 0h3.981v10.62H0z" transform="translate(.019 .036)"/><g id="Group_9-2" data-name="Group 9" clip-path="url(#clip-path-3)"><path id="Fill_7" data-name="Fill 7" class="cls-3" d="M3.671 10.62a.311.311 0 0 0 .311-.314V.314A.311.311 0 0 0 3.671 0H.311A.311.311 0 0 0 0 .314V10.3a.311.311 0 0 0 .311.314h3.36z" transform="translate(.019 .036)"/></g></g></g></svg>